<?xml version="1.0" encoding="UTF-8"?>
<svg width="39px" height="40px" viewBox="0 0 39 40" version="1.1" xmlns="http://www.w3.org/2000/svg" xmlns:xlink="http://www.w3.org/1999/xlink">
    <!-- Generator: Sketch 59 (86127) - https://sketch.com -->
    <title>Icons/Arrow/Down</title>
    <desc>Created with Sketch.</desc>
    <g id="Icons/Arrow/Down" stroke="none" stroke-width="1" fill="none" fill-rule="evenodd">
        <path d="M20.2096716,9.29096934 C20.2134464,9.2946846 20.2171916,9.29842979 20.2209069,9.30220455 L22.3622751,11.4778705 C22.3972847,11.5134409 22.4290947,11.550977 22.457705,11.5901195 L38.7248528,28.1191958 C39.1079167,28.5083951 39.1079167,29.1329302 38.7248528,29.5221295 L36.5834846,31.6977954 C36.1960751,32.0914099 35.5629301,32.0964401 35.1693157,31.7090307 C35.1655409,31.7053154 35.1617957,31.7015702 35.1580804,31.6977954 L19.5,15.788 L3.84191956,31.6977954 C3.45451011,32.0914099 2.82136511,32.0964401 2.42775062,31.7090307 C2.42397586,31.7053154 2.42023067,31.7015702 2.41651541,31.6977954 L0.275147212,29.5221295 C-0.107916691,29.1329302 -0.107916691,28.5083951 0.275147212,28.1191958 L16.542295,11.5901195 C16.5709053,11.550977 16.6027153,11.5134409 16.6377249,11.4778705 L18.7790931,9.30220455 C18.9876982,9.09025829 19.2675521,8.99097848 19.542894,9.00496704 L19.5593036,9.00496704 C19.7953109,9.01695722 20.0280034,9.11216498 20.2096716,9.29096934 Z" id="Combined-Shape" fill="#191919" transform="translate(19.500000, 20.500000) rotate(-180.000000) translate(-19.500000, -20.500000) "></path>
    </g>
</svg>