<?xml version="1.0" standalone="no"?>
<!DOCTYPE svg PUBLIC "-//W3C//DTD SVG 20010904//EN"
 "http://www.w3.org/TR/2001/REC-SVG-20010904/DTD/svg10.dtd">
<svg version="1.0" xmlns="http://www.w3.org/2000/svg"
 width="700.000000pt" height="700.000000pt" viewBox="0 0 700.000000 700.000000"
 preserveAspectRatio="xMidYMid meet">
<metadata>
Created by potrace 1.11, written by Peter Selinger 2001-2013
</metadata>
<g transform="translate(0.000000,700.000000) scale(0.100000,-0.100000)"
fill="#000000" stroke="none">
<path d="M3278 6995 c-1 -1 -41 -5 -88 -9 -87 -7 -105 -9 -225 -27 -116 -18
-123 -19 -192 -35 -234 -53 -348 -87 -536 -160 -395 -154 -748 -369 -1062
-648 -358 -318 -674 -746 -857 -1159 -27 -62 -53 -121 -58 -132 -46 -95 -150
-427 -176 -560 -2 -11 -10 -54 -19 -95 -29 -147 -36 -199 -52 -370 -15 -162
-8 -590 12 -711 2 -13 7 -46 10 -74 13 -97 14 -107 24 -158 147 -757 510
-1410 1077 -1937 41 -38 133 -116 207 -176 46 -37 168 -125 217 -156 198 -126
448 -37 523 186 15 44 17 149 17 1080 0 567 3 1054 6 1081 57 537 415 1000
911 1178 74 27 179 56 223 63 14 2 52 8 85 13 60 9 313 7 390 -4 124 -17 314
-81 441 -149 393 -209 674 -611 732 -1046 9 -73 9 -310 -1 -384 -30 -216 -127
-453 -259 -633 -201 -273 -520 -479 -838 -542 -101 -20 -115 -21 -215 -26
-239 -12 -324 -34 -456 -120 -153 -99 -266 -263 -303 -441 -18 -87 -14 -261 9
-333 20 -63 66 -165 77 -169 4 -2 8 -8 8 -14 0 -26 118 -151 188 -200 49 -34
155 -88 183 -93 10 -2 23 -6 28 -10 51 -31 467 -25 678 9 21 4 53 8 70 11 318
38 819 211 1133 390 36 21 81 46 100 57 120 69 357 238 474 338 100 86 248
230 320 310 27 30 63 71 81 91 154 170 380 519 495 764 111 238 213 532 256
740 16 79 54 301 59 350 4 33 9 71 11 85 9 47 11 525 4 605 -16 169 -22 220
-25 225 -2 3 -6 30 -10 60 -9 75 -69 337 -98 435 -206 676 -584 1248 -1127
1703 -67 56 -306 231 -351 257 -10 5 -54 32 -99 58 -325 192 -686 334 -1038
408 -54 11 -106 22 -117 25 -11 2 -38 6 -60 9 -22 3 -51 7 -65 10 -13 2 -52 7
-86 11 -33 3 -74 8 -90 10 -32 5 -540 14 -546 9z"/>
</g>
</svg>
