<?xml version="1.0" encoding="UTF-8"?>
<svg width="50px" height="50px" viewBox="0 0 50 50" version="1.1" xmlns="http://www.w3.org/2000/svg" xmlns:xlink="http://www.w3.org/1999/xlink">
    <title>About</title>
    <g id="Icons/Nav/Default/About" stroke="none" stroke-width="1" fill="none" fill-rule="evenodd">
        <path d="M9.56250002,5.93563504 C9.64212838,5.93563504 9.71958296,5.94494207 9.7938353,5.96252767 C10.2592302,5.93216551 10.6960211,6.2331374 10.8213191,6.70075587 L17.138,30.276635 L23.4550067,6.70235028 C23.57923,6.23874283 24.0096254,5.93893538 24.4703544,5.96218339 L24.5840282,5.94244372 L24.5840282,5.94244372 L24.7017151,5.93563504 L29.2642151,5.93563504 C29.7770509,5.93563504 30.1997223,6.32167523 30.2574874,6.81901392 L30.2642151,6.93563504 L30.2642151,42.9964258 C30.2642151,43.5092617 29.8781749,43.931933 29.3808362,43.9896981 L29.2642151,43.9964258 L24.7017151,43.9964258 C24.1888792,43.9964258 23.7662079,43.6103857 23.7084428,43.113047 L23.7017151,42.9964258 L23.701,31.136635 L20.4364541,43.323295 C20.3037225,43.8186563 19.8214409,44.1270109 19.3260979,44.054087 L19.2117093,44.0304017 L19.084,43.995635 L15.187,43.995635 L15.0647294,44.0292286 C14.5312633,44.1721704 13.9829263,43.8555879 13.8399845,43.3221218 L10.562,31.090635 L10.5625,42.9964258 C10.5625,43.5487106 10.1147848,43.9964258 9.56250002,43.9964258 L5,43.9964258 C4.44771525,43.9964258 4,43.5487106 4,42.9964258 L4,6.93563504 C4,6.38335029 4.44771525,5.93563504 5,5.93563504 L9.56250002,5.93563504 Z M45,37.4339258 C45.5522847,37.4339258 46,37.8816411 46,38.4339258 L46,42.9964258 C46,43.5487106 45.5522847,43.9964258 45,43.9964258 L33.8697998,43.9964258 C33.3175151,43.9964258 32.8697998,43.5487106 32.8697998,42.9964258 L32.8697998,38.4339258 C32.8697998,37.8816411 33.3175151,37.4339258 33.8697998,37.4339258 L45,37.4339258 Z M38.4348999,21.6847804 C38.9871847,21.6847804 39.4348999,22.1324957 39.4348999,22.6847804 L39.4348999,27.2472805 C39.4348999,27.7995652 38.9871847,28.2472805 38.4348999,28.2472805 L33.8697998,28.2472805 C33.3175151,28.2472805 32.8697998,27.7995652 32.8697998,27.2472805 L32.8697998,22.6847804 C32.8697998,22.1324957 33.3175151,21.6847804 33.8697998,21.6847804 L38.4348999,21.6847804 Z M45,5.93563504 C45.5522847,5.93563504 46,6.38335029 46,6.93563504 L46,11.4981351 C46,12.0504198 45.5522847,12.4981351 45,12.4981351 L33.8697998,12.4981351 C33.3175151,12.4981351 32.8697998,12.0504198 32.8697998,11.4981351 L32.8697998,6.93563504 C32.8697998,6.38335029 33.3175151,5.93563504 33.8697998,5.93563504 L45,5.93563504 Z" id="Combined-Shape" fill="#191919"></path>
    </g>
</svg>