<?xml version="1.0" encoding="UTF-8"?>
<svg version="1.1" xmlns="http://www.w3.org/2000/svg" xmlns:xlink="http://www.w3.org/1999/xlink"
    viewBox="0 0 50 50">
    <title>Dribble</title>
    <g id="Icons/Nav/Default/Dribble" stroke="none" stroke-width="1" fill="none" fill-rule="evenodd">
        <path d="M28.8222641,29.2606733 C29.6578187,29.2606733 30.3499789,29.8741512 30.4722421,30.6749288 L34.6098194,46.6861237 L34.5945221,46.7127187 C34.6055116,46.7900261 34.6111963,46.86904 34.6111963,46.9493807 C34.6111963,47.6971699 34.118705,48.330019 33.4401483,48.5417351 L33.4487423,48.5364513 C30.4981173,49.8538462 20.2187877,52.0501113 10.9901714,45.7074134 C10.9826101,45.7026443 10.9752109,45.6977317 10.9678535,45.6927619 L10.9273221,45.6640745 L10.9273221,45.6640745 C10.5058777,45.3607717 10.2323256,44.8673007 10.2323256,44.3099867 C10.2323256,43.9332549 10.3573241,43.5856959 10.5681392,43.3064617 L10.5227429,43.3762309 C15.1821847,36.2704435 21.1112835,31.5913619 28.3100394,29.338986 C28.4729635,29.2884835 28.6443636,29.2606733 28.8222641,29.2606733 Z M48.1255099,28.6151542 L48.2181511,28.6352771 C48.9360036,28.8218398 49.4659487,29.4738614 49.4659487,30.2495641 C49.4659487,30.3762528 49.451813,30.4996424 49.4250318,30.6182441 L49.4310131,30.6289533 C48.0654634,36.1914428 45.2306974,40.7515925 40.9267151,44.3094022 L40.5189124,44.6400103 C40.2311003,44.8646627 39.870733,44.9996313 39.4788181,44.9996313 C38.6054885,44.9996313 37.8888121,44.3294295 37.8157916,43.4756585 L37.8152996,43.465 L37.6047211,42.4314166 C36.7426233,38.2939172 35.7201012,34.4619006 34.5371548,30.9353669 L34.2492996,30.096 L34.2562996,30.118 L34.2429036,30.0781229 L34.2429036,30.0781229 L34.238076,30.0600977 C34.1906693,29.9060197 34.1657478,29.7436202 34.1657478,29.5754043 C34.1657478,28.6542573 34.9130532,27.9075201 35.8349011,27.9075201 L35.7307478,27.911324 L35.734385,27.9075201 C39.7457267,27.6005387 43.8761017,27.8364167 48.1255099,28.6151542 Z M37.8096649,43.3317471 L37.8152996,43.465 L37.8169034,43.4721557 L37.8096649,43.3317471 L37.8096649,43.3317471 Z M25.2700089,20.6401712 C25.9771537,20.6401712 26.5815917,21.0795772 26.8247861,21.7000491 L26.7962503,21.6422353 C27.1671837,22.4197134 27.4767049,23.0961479 27.7248139,23.6715386 C27.8214037,23.8816947 27.8753855,24.1166693 27.8753855,24.3642425 C27.8753855,25.1565775 27.322471,25.8198707 26.5811564,25.9898847 L26.7092982,25.9455832 C19.3939628,28.3327282 13.2019213,33.1091583 8.13317396,40.2748736 C7.84813667,40.7832772 7.30376613,41.1259378 6.67930202,41.1259378 C6.11132621,41.1259378 5.60960901,40.8424666 5.30811397,40.4093859 L5.3658821,40.4826132 C1.78882711,35.9110749 0.00029961688,30.9674995 0.00029961688,25.651887 L0.00642640552,25.5089216 C0.0794468375,24.6551507 0.796123298,23.9849489 1.66945288,23.9849489 L1.59629962,23.9871712 L1.60032878,23.9840028 C11.8307993,23.6031591 20.1117996,22.0720376 24.7209394,20.7325239 C24.8917161,20.6728926 25.0770384,20.6401712 25.2700089,20.6401712 Z M48.0536077,28.6012993 C48.0747905,28.604568 48.0958419,28.6082346 48.1167538,28.6122913 L48.1255099,28.6151542 L48.0536077,28.6012993 Z M44.1497126,9.9010243 C44.6935587,9.9010243 45.1766565,10.1609214 45.481401,10.5632 C47.9935419,14.1494824 49.4793871,18.1369038 49.9466501,22.5257308 L49.9997535,23.0764248 L49.9881299,23.0860243 L49.9924237,23.1938093 C49.9924237,24.0664749 49.321712,24.7826065 48.4672914,24.8555714 L48.3232705,24.8616935 C48.1652184,24.8616935 48.0122971,24.8397428 47.8673932,24.7987257 C42.5911788,23.9659924 37.738983,23.847463 33.3101603,24.4414625 L33.5441797,24.414043 C33.433779,24.4370156 33.3193782,24.4490902 33.2021552,24.4490902 C32.4350513,24.4490902 31.7888098,23.9320104 31.5934653,23.2276344 L30.4774386,20.7575117 C30.35465,20.5252469 30.2851299,20.260518 30.2851299,19.9795642 C30.2851299,19.2490373 30.7551459,18.6282051 31.4094868,18.4025413 C38.7068971,15.2632732 41.2572368,12.0400465 42.914439,10.4592839 L42.8592938,10.5109149 C43.1654166,10.1385445 43.6298056,9.9010243 44.1497126,9.9010243 Z M14.2463028,2.6047693 C14.7373522,2.6047693 15.1788756,2.81665402 15.484302,3.15391824 L15.5805913,3.27082706 C18.4587669,7.06268 21.0407193,10.9697227 23.3264484,14.9919553 C23.5003984,15.2558342 23.6020968,15.57191 23.6020968,15.9117207 C23.6020968,16.6906084 23.067791,17.3447971 22.3454476,17.5282821 L22.3430357,17.5337617 C16.4260226,19.008975 9.86689921,19.9077099 2.66566562,20.2299663 L2.65887922,20.2217693 L2.55003249,20.2271413 C1.6767029,20.2271413 0.960026443,19.5569395 0.887006011,18.7031686 L0.880879222,18.5592571 C0.880879222,18.3080352 0.936463919,18.0697859 1.03601453,17.8561192 L1.00529962,17.959 L1.08067798,17.7081668 C2.63720777,12.6036123 6.19834515,6.66963423 13.3330705,2.87513304 C13.5961868,2.70438697 13.9096024,2.6047693 14.2463028,2.6047693 Z M40.2366548,5.11305342 C40.6456901,5.42272345 40.9095957,5.90853117 40.9095957,6.4559305 C40.9095957,6.92862436 40.712807,7.3553907 40.3966273,7.65889071 L40.5412926,7.48024979 C38.0187614,10.6181489 34.3228069,13.189053 29.4534292,15.1929621 C29.240394,15.2917849 29.0038122,15.3464205 28.7544599,15.3464205 C28.0668645,15.3464205 27.4763756,14.9309739 27.2206752,14.3375818 L27.2821245,14.4524262 C25.6290198,11.291266 23.1985211,7.4702136 19.9906286,2.98926904 C19.7579676,2.70247494 19.6192398,2.33796969 19.6192398,1.94108746 C19.6192398,1.01994045 20.3665452,0.273203256 21.2883931,0.273203256 L21.1842398,0.277 L21.1878405,0.270134204 C28.2958029,-0.693454713 34.6454077,0.920851691 40.2366548,5.11305342 Z" id="Combined-Shape" fill="#191919"></path>
    </g>
</svg>