<?xml version="1.0" encoding="UTF-8"?>
<svg width="50px" height="50px" viewBox="0 0 50 50" version="1.1" xmlns="http://www.w3.org/2000/svg" xmlns:xlink="http://www.w3.org/1999/xlink">
    <title>Github</title>
    <g id="Icons/Nav/Default/Github" stroke="none" stroke-width="1" fill="none" fill-rule="evenodd">
        <path d="M25.0171233,0.65 C38.833699,0.65 50.0342466,11.8505476 50.0342466,25.6671233 C50.0342466,36.6138733 43.0033806,45.9184766 33.2110831,49.3114988 C33.0965684,49.336922 32.9777224,49.35 32.8558219,49.35 C31.9347169,49.35 31.1880137,48.6032968 31.1880137,47.6821918 C31.1880137,47.6764685 31.1880425,47.670752 31.1871619,47.6645137 L31.1871619,38.8255137 C31.1880137,37.9535043 31.858185,37.2374054 32.711917,37.1644438 L32.711917,37.1644438 L32.8309542,37.1588493 L34.8612924,37.1594167 C38.1750009,37.1594167 40.8612924,34.4731252 40.8612924,31.1594167 L40.8612924,31.1594167 L40.8612924,18.9745711 C40.8612924,17.3624017 40.2254553,15.89874 39.1908742,14.8206792 L39.1908742,14.8206792 L39.1908561,12.6568493 C39.1908561,11.5522798 38.2954256,10.6568493 37.1908561,10.6568493 L37.1908561,10.6568493 L34.5196232,10.6568493 C33.4150537,10.6568493 32.5196232,11.5522798 32.5196232,12.6568493 L32.5196232,12.6568493 L32.5189542,12.9738493 L17.5119542,12.9738493 L17.5119863,12.6568493 C17.5119863,11.5522798 16.6165558,10.6568493 15.5119863,10.6568493 L15.5119863,10.6568493 L12.8407534,10.6568493 C11.7361839,10.6568493 10.8407534,11.5522798 10.8407534,12.6568493 L10.8407534,12.6568493 L10.8404737,14.8237019 C9.80760377,15.9014751 9.1729542,17.3639079 9.1729542,18.9745711 L9.1729542,18.9745711 L9.1729542,31.1594167 C9.1729542,34.4731252 11.8592457,37.1594167 15.1729542,37.1594167 L15.1729542,37.1594167 L17.2026236,37.1584939 C18.1125723,37.1714353 18.8462323,37.9130996 18.8461619,38.8255137 L18.8461619,38.8255137 L18.8461619,47.6645137 L18.8443677,47.6645137 L18.8462329,47.6821918 C18.8462329,48.6032968 18.0995297,49.35 17.1784247,49.35 C17.0564651,49.35 16.9375631,49.3369094 16.823047,49.3120565 C7.03086594,45.9184766 -2.13162821e-14,36.6138733 -2.13162821e-14,25.6671233 C-2.13162821e-14,11.8505476 11.2005476,0.65 25.0171233,0.65 Z" id="Combined-Shape" fill="#191919"></path>
    </g>
</svg>