<?xml version="1.0" encoding="UTF-8"?>
<svg width="50px" height="50px" viewBox="0 0 50 50" version="1.1" xmlns="http://www.w3.org/2000/svg" xmlns:xlink="http://www.w3.org/1999/xlink">
    <title>Work</title>
    <g id="Icons/Nav/Default/Work" stroke="none" stroke-width="1" fill="none" fill-rule="evenodd">
        <path d="M48.1935206,46.5441442 C48.7458053,46.5441442 49.1935206,46.9918594 49.1935206,47.5441442 L49.1935206,48.9753485 C49.1935206,49.5276333 48.7458053,49.9753485 48.1935206,49.9753485 L2.15665929,49.9753485 C1.60437454,49.9753485 1.15665929,49.5276333 1.15665929,48.9753485 L1.15665929,47.5441442 C1.15665929,46.9918594 1.60437454,46.5441442 2.15665929,46.5441442 L48.1935206,46.5441442 Z M42.636099,33.8411439 C42.7458739,33.9509187 42.8285827,34.0847444 42.8776755,34.2320229 L45.8099106,43.028728 C45.9296888,43.3880627 45.8361663,43.7842302 45.568334,44.0520625 L44.9866294,44.6337672 C44.7187971,44.9015995 44.3226295,44.995122 43.9632948,44.8753437 L35.1665897,41.9431087 C34.6426464,41.7684609 34.3594864,41.2021409 34.5341341,40.6781976 C34.583227,40.5309192 34.6659358,40.3970935 34.7757107,40.2873186 L41.2218854,33.8411439 C41.6124097,33.4506196 42.2455747,33.4506196 42.636099,33.8411439 Z M16.8698539,6.23037555 L39.7193456,29.0798672 C40.1098698,29.4703915 40.1098698,30.1035565 39.7193456,30.4940808 L31.4286476,38.7847787 C31.0381233,39.175303 30.4049583,39.175303 30.014434,38.7847787 L7.16494236,15.9352871 C6.77441807,15.5447628 6.77441807,14.9115978 7.16494236,14.5210735 L15.4556403,6.23037555 C15.8461646,5.83985126 16.4793296,5.83985126 16.8698539,6.23037555 Z M10.8042842,0.164805842 L13.0294124,2.3899341 C13.4199367,2.78045839 13.4199367,3.41362337 13.0294124,3.80414767 L4.73871448,12.0948456 C4.34819019,12.4853699 3.71502521,12.4853699 3.32450092,12.0948456 L1.09937266,9.86971737 C0.708848365,9.47919308 0.708848365,8.8460281 1.09937266,8.45550381 L9.39007062,0.164805842 C9.78059491,-0.225718449 10.4137599,-0.225718449 10.8042842,0.164805842 Z" id="Combined-Shape" fill="#191919"></path>
    </g>
</svg>