<?xml version="1.0" encoding="UTF-8"?>
<svg width="100px" height="100px" viewBox="0 0 100 100" version="1.1" xmlns="http://www.w3.org/2000/svg" xmlns:xlink="http://www.w3.org/1999/xlink">
    <title>Logo</title>
    <g id="Logo/Logo" stroke="none" stroke-width="1" fill="none" fill-rule="evenodd" class="logo">
        <path d="M50,1.42108547e-14 C77.6142375,1.42108547e-14 100,22.3857625 100,50 C100,77.6142375 77.6142375,100 50,100 L50,100 L49.7200952,99.9961582 C44.3266708,99.8479317 40,95.4292399 40,90 C40,84.4771525 44.4771525,80 50,80 L50,80 L50.3444894,79.9970929 C61.2312714,79.813225 70,70.9306357 70,60 C70,48.954305 61.045695,40 50,40 C39.0693643,40 30.186775,48.7687286 30.0029071,59.6555106 L30.0029071,59.6555106 L30,60 L30.0012088,87.2283405 C30.0052779,87.3108809 30.0073365,87.39395 30.0073365,87.4775 C30.0073365,90.2264973 27.7788338,92.455 25.0298365,92.455 C24.0902121,92.455 23.2113979,92.1946407 22.4616009,91.7421293 L22.5040876,91.767582 C8.94623706,82.8243094 0,67.4569075 0,50 C0,22.3857625 22.3857625,1.42108547e-14 50,1.42108547e-14 Z" 
        id="Combined-Shape-Copy" fill="#191919" class="logo--colour"></path>
    </g>
</svg>