<?xml version="1.0" encoding="UTF-8"?>
<svg width="48px" height="72px" viewBox="0 0 48 72" version="1.1" xmlns="http://www.w3.org/2000/svg" xmlns:xlink="http://www.w3.org/1999/xlink">
    <g id="icons" stroke="none" stroke-width="1" fill="none" fill-rule="evenodd">
        <g id="Logo" fill="#FFFFFF" fill-rule="nonzero">
            <path d="M24,48.0055385 C9.33333333,48.0055385 1.66666667,56.0036923 1,72 L0,72 C0,72 0,40.1556923 0,24.456 C0,8.75630769 8.00030769,0.603692308 24,0 C40.0006154,0.601846154 48,8.75353846 48,24.456 C48,40.1584615 40.0006154,48.0055385 24,48.0055385 Z M24,36 C31.9993846,36.0009231 36,32.0769231 36,24.2261538 C36,16.3763077 31.9993846,12.3009231 24,12 C15.9996923,12.3018462 12,16.3772308 12,24.2261538 C12,32.076 15.9996923,36 24,36 Z" id="path-1_1_"></path>
        </g>
    </g>
</svg>