<?xml version="1.0" encoding="utf-8"?>
<!-- Generator: Adobe Illustrator 16.0.0, SVG Export Plug-In . SVG Version: 6.00 Build 0)  -->
<!DOCTYPE svg PUBLIC "-//W3C//DTD SVG 1.1//EN" "http://www.w3.org/Graphics/SVG/1.1/DTD/svg11.dtd">
<svg version="1.1" id="Layer_1" xmlns="http://www.w3.org/2000/svg" xmlns:xlink="http://www.w3.org/1999/xlink" x="0px" y="0px"
	 width="52px" height="78px" viewBox="0 0 52 78" enable-background="new 0 0 52 78" xml:space="preserve">
<g>
	<path id="path-1" fill="#FFFFFF" d="M26,52.006C8.667,51.673,0,60.338,0,78c0-17.329,0-34.498,0-51.506S8.667,0.654,26,0
		c17.334,0.652,26,9.483,26,26.494S43.334,52.008,26,52.006z M26,39c8.666,0.001,13-4.25,13-12.755C39,17.741,34.666,13.326,26,13
		c-8.667,0.327-13,4.742-13,13.245C13,34.749,17.333,39,26,39z"/>
</g>
<title>Mask</title>
<desc>Created with Sketch.</desc>
<g id="Styles">
	<g id="Icons-_x2F_-Logo_x2F_-Final">
		<g id="Mask">
			<path id="path-1_1_" fill="#F8FBFA" d="M26,52.006C5,52.006,2,78,2,78H0c0,0,0-34.498,0-51.506S8.667,0.654,26,0
				c17.334,0.652,26,9.483,26,26.494S43.334,52.008,26,52.006z M26,39c8.666,0.001,13-4.25,13-12.755C39,17.741,34.666,13.326,26,13
				c-8.667,0.327-13,4.742-13,13.245C13,34.749,17.333,39,26,39z"/>
		</g>
	</g>
</g>
</svg>
