<?xml version="1.0" encoding="utf-8"?>
<!-- Generator: Adobe Illustrator 16.0.0, SVG Export Plug-In . SVG Version: 6.00 Build 0)  -->
<!DOCTYPE svg PUBLIC "-//W3C//DTD SVG 1.1//EN" "http://www.w3.org/Graphics/SVG/1.1/DTD/svg11.dtd">
<svg version="1.1" xmlns="http://www.w3.org/2000/svg" xmlns:xlink="http://www.w3.org/1999/xlink" x="0px" y="0px" width="1920px"
	 height="1080px" viewBox="0 0 1920 1080" enable-background="new 0 0 1920 1080" xml:space="preserve">
<g id="Layer_1" display="none">
	<rect x="-0.5" y="0.5" display="inline" fill="#231F20" stroke="#000000" stroke-miterlimit="10" width="1920" height="1080"/>
</g>
<g id="Layer_2">
	<circle opacity="0.7" fill="#FFFFFF" cx="1369.546" cy="349.454" r="4.167"/>
	<circle opacity="0.7" fill="#FFFFFF" cx="1137.546" cy="145.454" r="4.167"/>
	<circle opacity="0.7" fill="#FFFFFF" cx="590.546" cy="149.454" r="4.167"/>
	<circle opacity="0.7" fill="#FFFFFF" cx="207.546" cy="457.454" r="4.167"/>
	<circle opacity="0.7" fill="#FFFFFF" cx="787.546" cy="835.454" r="4.167"/>
	<circle opacity="0.7" fill="#FFFFFF" cx="1095.546" cy="922.454" r="4.167"/>
</g>
<g id="Layer_3">
	<circle opacity="0.7" fill="#FFFFFF" cx="603.396" cy="269.209" r="2.261"/>
	<circle opacity="0.7" fill="#FFFFFF" cx="861.505" cy="171.146" r="4.469"/>
	<circle opacity="0.7" fill="#FFFFFF" cx="663.481" cy="351.267" r="4.469"/>
	<circle opacity="0.7" fill="#FFFFFF" cx="420.019" cy="256.188" r="2.261"/>
	<circle opacity="0.7" fill="#FFFFFF" cx="210.059" cy="375.003" r="2.261"/>
	<circle opacity="0.7" fill="#FFFFFF" cx="125.424" cy="474.287" r="2.261"/>
	<circle opacity="0.7" fill="#FFFFFF" cx="331.586" cy="318.037" r="2.261"/>
	<circle opacity="0.7" fill="#FFFFFF" cx="1255.094" cy="881.64" r="4.468"/>
	<circle opacity="0.7" fill="#FFFFFF" cx="1110.373" cy="879.604" r="2.261"/>
	<circle opacity="0.7" fill="#FFFFFF" cx="1354.514" cy="627.87" r="2.261"/>
	<circle opacity="0.7" fill="#FFFFFF" cx="1241.666" cy="257.32" r="2.261"/>
	<circle opacity="0.7" fill="#FFFFFF" cx="1170.053" cy="440.153" r="2.261"/>
	<circle opacity="0.7" fill="#FFFFFF" cx="1051.238" cy="230.194" r="2.261"/>
	<circle opacity="0.7" fill="#FFFFFF" cx="951.953" cy="145.558" r="2.261"/>
	<circle opacity="0.7" fill="#FFFFFF" cx="1108.203" cy="351.721" r="2.261"/>
	<circle opacity="0.7" fill="#FFFFFF" cx="1650.031" cy="675.53" r="2.261"/>
	<circle opacity="0.7" fill="#FFFFFF" cx="1847.378" cy="524.57" r="4.469"/>
	<circle opacity="0.7" fill="#FFFFFF" cx="1567.974" cy="735.615" r="4.469"/>
	<circle opacity="0.7" fill="#FFFFFF" cx="1847.514" cy="679.87" r="2.261"/>
	<circle opacity="0.7" fill="#FFFFFF" cx="1790.005" cy="531.216" r="2.261"/>
	<circle opacity="0.7" fill="#FFFFFF" cx="1663.053" cy="492.153" r="2.261"/>
	<circle opacity="0.7" fill="#FFFFFF" cx="1425.965" cy="657.083" r="2.261"/>
	<circle opacity="0.7" fill="#FFFFFF" cx="1555.631" cy="123.774" r="2.261"/>
	<circle opacity="0.7" fill="#FFFFFF" cx="870.764" cy="791.617" r="4.469"/>
	<circle opacity="0.7" fill="#FFFFFF" cx="487.057" cy="712.543" r="2.261"/>
	<circle opacity="0.7" fill="#FFFFFF" cx="718.72" cy="613.26" r="2.261"/>
	<circle opacity="0.7" fill="#FFFFFF" cx="671.519" cy="767.338" r="2.261"/>
</g>
</svg>
